<?xml version="1.0" standalone="no"?>
<!DOCTYPE svg PUBLIC "-//W3C//DTD SVG 20010904//EN"
 "http://www.w3.org/TR/2001/REC-SVG-20010904/DTD/svg10.dtd">
<svg version="1.0" xmlns="http://www.w3.org/2000/svg"
 width="868.000000pt" height="868.000000pt" viewBox="0 0 868.000000 868.000000"
 preserveAspectRatio="xMidYMid meet">
<metadata>
Created by potrace 1.11, written by Peter Selinger 2001-2013
</metadata>
<g transform="translate(0.000000,868.000000) scale(0.100000,-0.100000)"
fill="#000000" stroke="none">
<path d="M1605 8193 c-66 -114 -122 -212 -124 -217 -2 -6 -7 -13 -10 -16 -5
-4 -22 -34 -55 -95 -6 -11 -15 -23 -21 -27 -7 -5 -7 -8 0 -8 7 0 6 -3 0 -8 -9
-6 -37 -53 -125 -206 -10 -17 -41 -71 -70 -121 -58 -99 -80 -138 -109 -189
-11 -19 -31 -53 -45 -75 -15 -22 -26 -45 -26 -49 0 -5 -8 -20 -18 -33 -10 -13
-30 -44 -43 -69 -13 -25 -27 -47 -30 -50 -3 -3 -12 -20 -20 -37 -8 -18 -17
-33 -21 -33 -5 0 -8 -4 -8 -8 0 -9 -111 -207 -127 -227 -4 -5 -15 -23 -23 -40
-8 -16 -17 -32 -20 -35 -3 -3 -10 -14 -16 -25 -36 -66 -65 -118 -86 -152 -14
-21 -28 -45 -32 -53 -4 -8 -12 -24 -19 -35 -7 -11 -37 -63 -67 -115 -30 -52
-59 -102 -65 -112 -5 -9 -21 -37 -34 -62 -14 -25 -27 -46 -30 -46 -3 0 -15
-20 -26 -45 -11 -25 -23 -45 -27 -45 -5 0 -8 -4 -8 -9 0 -6 -39 -76 -86 -158
-48 -81 -98 -168 -112 -193 -13 -25 -28 -49 -32 -55 -5 -5 -21 -34 -38 -64
l-30 -54 78 -121 c42 -67 156 -243 252 -393 l176 -272 52 87 c28 48 57 96 63
107 7 11 27 43 45 72 17 30 32 58 32 63 0 6 5 10 10 10 6 0 10 4 10 9 0 5 54
101 121 212 67 112 129 218 138 234 45 82 167 280 173 283 5 2 8 12 8 23 0 10
4 19 8 19 5 0 18 19 31 43 12 23 31 56 41 72 11 17 30 49 42 73 12 23 26 42
30 42 4 0 8 5 8 11 0 5 72 131 160 279 88 148 160 274 160 279 0 6 4 11 9 11
5 0 18 19 30 43 12 23 39 71 61 106 22 34 40 65 40 67 0 2 32 55 70 119 107
175 120 199 127 218 3 9 9 17 14 17 5 0 9 5 9 11 0 6 14 31 30 56 17 25 32 50
33 56 1 7 5 14 8 17 11 10 99 161 99 170 0 6 3 10 8 10 4 0 19 24 35 53 l27
53 68 -2 c80 -3 132 -4 152 -3 8 0 103 -2 210 -5 229 -6 584 -15 900 -21 821
-18 1084 -25 1100 -30 8 -3 23 -22 32 -43 17 -36 59 -114 97 -175 10 -18 33
-59 51 -92 39 -72 47 -85 190 -340 147 -261 160 -284 179 -322 8 -18 19 -33
23 -33 4 0 8 -9 8 -20 0 -11 5 -20 10 -20 6 0 10 -4 10 -9 0 -7 94 -180 121
-221 5 -8 15 -26 22 -40 12 -25 120 -218 142 -255 7 -11 12 -22 11 -25 0 -3 8
-18 20 -35 19 -28 86 -145 153 -269 16 -28 39 -69 51 -91 13 -22 34 -60 48
-85 13 -25 40 -71 58 -103 19 -32 34 -62 34 -68 0 -5 5 -9 10 -9 6 0 10 -7 10
-15 0 -9 9 -28 19 -43 16 -23 239 -418 331 -587 15 -27 57 -103 94 -168 l66
-118 -16 -32 c-9 -18 -20 -34 -23 -37 -6 -5 -84 -152 -110 -207 -8 -18 -19
-33 -23 -33 -4 0 -8 -9 -8 -19 0 -11 -4 -21 -8 -23 -4 -1 -22 -30 -39 -63 -17
-33 -42 -80 -55 -105 -13 -24 -28 -50 -35 -57 -6 -7 -15 -23 -19 -36 -4 -12
-10 -24 -13 -27 -3 -3 -19 -30 -34 -60 -16 -30 -39 -73 -51 -95 -12 -22 -37
-67 -55 -100 -18 -33 -37 -64 -41 -70 -5 -5 -9 -14 -10 -20 -1 -5 -12 -28 -25
-50 -37 -63 -82 -146 -108 -195 -53 -103 -81 -155 -86 -160 -4 -3 -16 -25 -29
-50 -12 -25 -41 -76 -62 -115 -22 -38 -46 -83 -54 -100 -9 -16 -33 -63 -55
-102 -32 -60 -36 -73 -23 -74 10 0 69 -2 132 -4 63 -2 205 -6 315 -10 110 -4
253 -8 318 -9 l118 -1 32 57 c34 61 151 265 193 338 15 25 43 74 64 110 20 36
48 85 62 110 14 25 84 148 157 274 72 126 131 233 131 238 0 4 5 8 10 8 6 0
10 5 10 10 0 9 44 90 105 192 6 9 17 29 26 45 8 15 62 109 119 208 56 99 113
199 126 222 l24 42 -75 132 c-41 72 -75 133 -75 135 0 1 -20 37 -46 79 -25 43
-58 100 -73 129 -61 112 -94 171 -101 181 -4 6 -19 31 -34 57 -56 102 -83 149
-184 328 -58 102 -118 209 -133 238 -16 30 -32 59 -37 65 -5 7 -23 37 -39 67
-17 30 -40 73 -53 95 -13 22 -34 60 -48 85 -14 25 -71 126 -127 225 -56 99
-104 187 -108 195 -4 8 -18 33 -31 55 -14 22 -33 56 -44 75 -18 33 -35 62 -83
148 -12 20 -33 57 -47 82 -13 25 -40 71 -58 103 -19 32 -34 62 -34 68 0 5 -5
9 -11 9 -5 0 -8 4 -5 9 3 5 -1 14 -9 21 -8 7 -15 18 -15 25 0 8 -3 15 -7 17
-5 2 -19 23 -32 48 -59 112 -95 176 -107 191 -8 8 -14 19 -14 23 0 4 -32 62
-70 128 -38 66 -70 124 -70 128 0 4 -9 19 -21 34 -11 14 -17 26 -12 26 4 0 3
4 -3 8 -6 4 -26 36 -46 72 -19 36 -61 109 -92 164 -31 54 -56 102 -56 107 0 4
-6 14 -13 21 -6 7 -21 31 -32 53 -11 22 -22 42 -25 45 -4 4 -24 39 -54 95 -6
11 -17 28 -25 38 -8 9 -11 17 -7 17 4 0 -2 13 -13 29 -12 16 -21 34 -21 40 0
6 -4 11 -10 11 -5 0 -10 4 -10 9 0 4 -21 45 -46 90 l-46 81 -1697 0 -1697 0
-119 -207z"/>
<path d="M2446 7283 c-4 -4 -24 -6 -44 -4 -38 2 -38 2 -90 -86 -28 -48 -55
-92 -59 -98 -4 -5 -15 -23 -23 -40 -8 -16 -21 -36 -27 -43 -7 -7 -13 -18 -13
-23 0 -5 -8 -22 -19 -37 -10 -15 -42 -67 -70 -117 -28 -49 -56 -97 -61 -105
-5 -8 -22 -37 -37 -64 -16 -27 -32 -56 -38 -65 -5 -9 -57 -98 -115 -196 -57
-99 -107 -182 -110 -185 -3 -3 -14 -21 -24 -40 -9 -19 -35 -64 -57 -100 -21
-36 -44 -74 -49 -85 -6 -11 -21 -38 -35 -60 -14 -22 -35 -58 -46 -80 -12 -22
-24 -42 -28 -45 -3 -3 -19 -30 -35 -60 -17 -30 -45 -78 -63 -107 -18 -29 -33
-55 -33 -58 0 -4 -8 -19 -19 -33 -10 -15 -29 -47 -43 -72 -14 -25 -55 -96 -92
-158 -36 -62 -66 -117 -66 -123 0 -5 -4 -9 -8 -9 -4 0 -18 -19 -30 -42 -12
-24 -33 -61 -46 -83 -14 -22 -46 -76 -71 -120 -25 -44 -54 -93 -64 -110 -10
-16 -34 -57 -53 -90 -19 -33 -74 -126 -121 -207 -48 -81 -87 -152 -87 -157 0
-5 -4 -11 -8 -13 -5 -1 -33 -46 -62 -98 -30 -52 -58 -96 -62 -98 -5 -2 -8 -7
-8 -12 0 -7 -64 -122 -121 -215 -10 -16 -24 -41 -32 -55 -7 -14 -68 -118 -135
-232 -67 -114 -122 -212 -122 -218 0 -5 -3 -10 -7 -10 -5 0 -21 -26 -38 -58
-16 -31 -32 -59 -35 -62 -3 -3 -14 -18 -24 -33 l-18 -29 47 -81 c26 -44 56
-97 67 -116 11 -20 43 -74 71 -121 27 -47 60 -103 72 -125 13 -22 62 -107 110
-190 48 -82 95 -163 105 -180 9 -16 31 -54 49 -83 17 -29 31 -57 31 -62 0 -6
5 -10 10 -10 6 0 10 -4 10 -9 0 -6 46 -88 101 -183 56 -95 113 -193 127 -218
14 -25 35 -61 46 -80 12 -19 33 -56 46 -82 14 -27 28 -48 32 -48 5 0 8 -4 8
-10 0 -5 13 -31 29 -57 62 -103 145 -248 146 -253 0 -3 8 -16 16 -30 9 -14 51
-86 94 -160 43 -74 85 -146 94 -160 9 -14 21 -34 27 -45 52 -95 68 -121 74
-130 4 -5 19 -30 32 -55 14 -25 48 -84 77 -132 28 -48 51 -91 51 -97 0 -6 5
-11 10 -11 6 0 10 -4 10 -9 0 -5 30 -59 66 -120 l65 -111 1699 0 1698 0 25 48
c14 27 34 64 44 83 11 19 34 60 51 92 18 31 45 81 62 111 16 30 40 74 53 98
13 24 30 54 39 68 8 14 33 59 56 100 75 141 105 195 115 208 5 6 8 12 6 13 -4
0 -713 4 -2378 13 -552 3 -1006 8 -1010 11 -7 7 -55 89 -71 120 -5 11 -24 45
-42 76 -75 130 -108 190 -108 199 0 6 -4 10 -10 10 -5 0 -10 4 -10 9 0 4 -43
83 -95 175 -52 92 -95 171 -95 177 0 5 -4 9 -9 9 -5 0 -11 8 -14 18 -6 17 -12
29 -156 280 -44 78 -81 147 -81 152 0 6 -4 10 -10 10 -5 0 -10 4 -10 10 0 5
-41 80 -90 166 -50 86 -90 158 -90 159 0 2 -41 74 -90 160 -50 86 -90 161 -90
166 0 5 -5 9 -12 9 -6 0 -8 3 -5 7 4 3 1 13 -7 22 -8 9 -26 39 -40 66 -15 28
-32 58 -39 67 -9 14 -6 27 16 70 15 29 32 60 37 68 38 59 300 522 300 530 0 6
4 10 8 10 5 0 14 16 22 35 8 19 17 35 22 35 4 0 8 7 8 15 0 8 5 15 12 15 6 0
9 3 5 6 -3 3 9 29 27 57 18 29 36 59 39 67 4 8 17 31 28 50 18 30 44 75 159
275 10 17 34 59 55 95 21 36 49 85 63 110 14 25 34 59 44 75 10 17 22 39 28
50 12 23 35 63 115 200 109 187 195 339 195 343 0 2 8 16 18 30 17 24 45 74
98 172 11 19 21 37 24 40 5 5 16 24 57 99 14 25 29 51 33 56 4 6 18 28 30 50
94 169 206 361 212 363 5 2 8 8 8 13 0 15 180 323 197 336 10 8 22 9 33 3 10
-5 20 -7 23 -4 3 4 149 8 324 9 175 2 548 7 828 10 281 4 589 8 686 9 l177 1
-24 45 c-14 25 -54 94 -89 154 -36 60 -65 113 -65 117 0 5 -4 9 -9 9 -5 0 -12
8 -15 18 -3 9 -12 26 -19 37 -7 11 -46 78 -87 148 -41 70 -83 140 -92 155 -9
15 -26 45 -37 67 -20 39 -35 47 -81 46 -61 -2 -165 1 -172 5 -4 3 -8 0 -8 -7
0 -9 -3 -9 -14 0 -9 7 -17 8 -20 3 -3 -6 -20 -7 -39 -3 -18 5 -41 5 -51 1 -10
-3 -40 -3 -67 0 -27 4 -49 3 -49 -1 0 -4 -13 -4 -29 1 -15 4 -34 5 -40 1 -7
-4 -31 -5 -54 -1 -23 3 -56 3 -73 0 -16 -4 -39 -4 -50 0 -10 4 -29 4 -41 -1
-12 -5 -25 -4 -28 0 -3 5 -20 6 -38 2 -18 -5 -41 -5 -52 -1 -11 4 -30 4 -42
-1 -12 -5 -25 -4 -28 0 -3 5 -20 6 -38 2 -18 -5 -41 -5 -52 -1 -11 4 -30 4
-42 -1 -12 -5 -25 -4 -28 0 -3 5 -20 6 -38 2 -18 -5 -41 -5 -52 -1 -11 4 -30
4 -42 -1 -12 -5 -25 -4 -28 0 -3 5 -20 6 -38 2 -18 -5 -41 -5 -52 -1 -11 4
-30 4 -42 -1 -12 -5 -25 -4 -28 0 -3 5 -20 6 -38 2 -18 -5 -41 -5 -52 -1 -11
4 -30 4 -42 -1 -12 -5 -25 -4 -28 0 -3 5 -20 6 -38 2 -18 -5 -41 -5 -52 -1
-11 4 -30 4 -42 -1 -12 -5 -25 -4 -28 0 -3 5 -20 6 -38 1 -18 -4 -42 -4 -52 0
-11 4 -28 4 -39 1 -10 -4 -40 -4 -67 -1 -29 4 -49 2 -49 -3 0 -5 -6 -4 -13 2
-8 6 -17 8 -21 4z"/>
<path d="M6556 7273 c-1 -2 -104 -4 -229 -6 -125 -2 -230 -6 -233 -10 -4 -4
-2 -7 4 -7 7 0 12 -8 12 -17 0 -9 6 -24 13 -32 8 -9 67 -113 132 -231 65 -118
126 -228 135 -245 9 -16 32 -57 50 -90 18 -33 52 -94 75 -135 23 -41 62 -111
85 -155 24 -44 46 -84 50 -90 4 -5 27 -46 50 -90 64 -120 75 -140 80 -145 7
-7 74 -128 138 -250 28 -53 82 -148 102 -180 5 -8 23 -42 40 -74 17 -33 60
-110 96 -173 35 -62 64 -117 64 -122 0 -5 3 -11 8 -13 4 -1 19 -25 33 -53 23
-44 137 -250 199 -360 13 -22 32 -58 43 -80 11 -22 27 -48 35 -57 8 -10 12
-18 9 -18 -4 0 5 -16 18 -36 14 -20 25 -43 25 -50 0 -8 3 -14 8 -14 4 0 15
-17 25 -37 9 -21 35 -69 56 -108 39 -70 40 -81 11 -125 -19 -29 -78 -127 -109
-183 -12 -22 -91 -157 -175 -300 -84 -144 -208 -356 -276 -472 -67 -115 -128
-219 -135 -230 -32 -53 -129 -221 -130 -225 0 -3 -12 -23 -26 -45 -26 -41 -89
-148 -124 -213 -11 -20 -23 -38 -27 -40 -5 -2 -8 -10 -8 -17 0 -8 -6 -20 -14
-27 -7 -8 -23 -32 -34 -54 -11 -21 -43 -76 -70 -121 -28 -45 -53 -90 -56 -101
-14 -42 -18 -43 -206 -43 -47 0 -89 0 -95 0 -54 2 -192 2 -200 1 -5 -2 -14 -1
-20 0 -8 2 -1491 6 -2970 10 l-201 0 -39 67 c-22 38 -48 83 -58 102 -10 19
-37 64 -58 99 -21 35 -39 66 -39 68 0 3 -69 122 -90 154 -6 8 -13 22 -17 30
-4 8 -24 43 -45 78 -21 34 -38 64 -38 66 0 2 -45 81 -100 175 -55 95 -100 176
-100 181 0 6 -4 10 -10 10 -5 0 -10 4 -10 9 0 7 -62 120 -100 181 -22 35 -100
172 -100 175 0 2 -17 32 -38 66 -22 35 -50 84 -64 109 -14 25 -40 71 -59 103
-19 32 -45 78 -59 102 -14 24 -29 47 -34 52 -5 4 -6 3 -3 -4 4 -6 4 -13 -1
-15 -4 -1 -28 -43 -53 -93 -25 -49 -83 -162 -129 -250 -245 -474 -258 -500
-249 -515 4 -8 31 -55 58 -103 28 -48 51 -90 51 -93 0 -2 10 -21 23 -42 13
-20 37 -62 54 -92 16 -30 60 -109 98 -175 37 -66 78 -138 90 -160 40 -74 106
-190 115 -205 24 -38 159 -282 171 -309 8 -17 17 -31 21 -31 5 0 8 -4 8 -10 0
-5 22 -48 50 -96 27 -48 50 -88 50 -90 0 -2 23 -41 50 -88 27 -47 50 -87 50
-89 0 -3 17 -34 38 -69 20 -35 45 -77 54 -93 l17 -30 1948 2 c1071 1 2126 2
2344 2 l396 1 14 28 c18 35 96 170 117 202 9 14 17 32 19 40 1 8 7 16 12 18 6
2 11 7 11 11 0 5 23 47 50 95 28 48 50 91 50 96 0 6 5 10 10 10 6 0 10 4 10 8
0 8 65 124 172 307 16 28 34 61 41 75 6 14 14 27 17 30 3 3 30 48 59 100 77
136 85 149 119 207 17 29 28 53 24 53 -4 0 -2 4 4 8 6 4 26 34 44 67 18 33 44
77 57 97 12 21 23 40 23 43 0 3 18 35 40 71 22 36 40 68 40 71 0 2 16 29 35
59 19 30 35 58 35 63 0 4 9 20 21 35 11 14 17 26 12 26 -4 0 -3 4 3 8 6 4 24
32 41 62 16 30 71 126 121 214 51 87 92 163 92 167 0 5 4 9 8 9 4 0 13 12 19
27 15 34 46 87 63 108 7 8 9 15 6 15 -4 0 1 12 12 28 24 33 201 342 254 441
15 30 16 38 5 55 -20 30 -67 112 -91 157 -20 38 -150 266 -171 300 -5 10 -22
39 -36 65 -14 27 -36 65 -48 84 -12 19 -24 43 -27 53 -4 9 -9 17 -13 17 -3 0
-12 15 -20 33 -8 17 -24 48 -36 67 -12 19 -37 62 -55 95 -76 137 -244 432
-261 456 -10 14 -16 28 -13 31 2 3 -2 11 -11 18 -8 7 -15 16 -15 21 0 5 -20
41 -44 81 -24 40 -47 83 -51 96 -3 12 -11 22 -16 22 -5 0 -9 4 -9 9 0 5 -20
44 -45 85 -25 42 -45 78 -45 80 0 4 -81 147 -100 176 -5 8 -23 40 -40 70 -16
30 -42 75 -56 100 -72 125 -147 257 -187 330 -17 30 -50 87 -73 127 -23 39
-45 81 -49 92 -3 12 -11 21 -16 21 -5 0 -9 4 -9 9 0 8 -115 216 -128 231 -4 5
-441 7 -446 3z"/>
<path d="M4847 6164 c-3 -4 -416 -8 -918 -10 -502 -2 -916 -7 -920 -11 -12
-13 -109 -185 -109 -194 0 -5 -5 -9 -12 -9 -6 0 -8 -3 -5 -7 4 -3 3 -11 -2
-17 -9 -11 -26 -41 -96 -166 -23 -41 -70 -124 -104 -183 -33 -60 -61 -113 -61
-118 0 -5 -4 -9 -9 -9 -5 0 -11 -8 -14 -17 -3 -10 -20 -43 -37 -73 -80 -139
-120 -213 -120 -221 0 -5 -4 -9 -10 -9 -5 0 -10 -4 -10 -9 0 -8 -49 -100 -107
-201 -11 -19 -37 -64 -57 -100 -20 -36 -41 -72 -46 -80 -6 -8 -13 -22 -17 -30
-4 -8 -44 -80 -88 -160 -45 -80 -93 -165 -107 -190 l-25 -46 27 -39 c16 -22
26 -43 24 -46 -2 -4 3 -12 11 -19 8 -7 15 -16 15 -21 0 -4 14 -32 31 -61 18
-29 43 -73 57 -98 14 -25 85 -152 158 -282 74 -131 134 -242 134 -248 0 -5 5
-10 10 -10 6 0 10 -4 10 -10 0 -5 33 -67 73 -137 41 -71 85 -148 99 -173 14
-25 34 -61 45 -80 12 -19 69 -120 129 -225 59 -104 121 -212 136 -240 16 -27
36 -67 46 -87 16 -37 24 -42 74 -55 13 -3 478 -8 1034 -10 l1010 -5 32 58 c18
33 44 79 58 104 14 25 79 140 144 255 65 116 127 226 138 245 11 19 37 67 57
105 21 39 42 76 48 83 5 7 20 32 32 55 12 23 45 83 73 133 29 51 52 97 52 103
0 6 3 11 8 11 4 0 20 26 36 58 17 31 38 69 49 85 10 15 15 27 11 27 -4 0 -1 8
7 18 8 9 20 28 27 41 42 73 55 96 88 158 20 37 49 91 64 118 39 71 74 139 75
145 0 3 6 15 13 28 7 12 9 28 5 35 -4 6 -8 17 -9 22 -1 6 -36 73 -78 149 -42
77 -76 141 -76 143 0 2 -11 20 -23 41 -13 20 -41 69 -61 107 -21 39 -45 84
-55 100 -22 38 -78 139 -103 185 -10 19 -23 42 -28 50 -8 13 -75 134 -165 295
-15 28 -45 80 -66 117 -21 36 -39 71 -39 77 0 6 -3 11 -8 11 -4 0 -15 17 -25
38 -9 20 -26 51 -36 67 -10 17 -33 57 -51 90 -58 106 -162 289 -181 321 -18
30 -21 31 -66 24 -27 -4 -52 -5 -57 -2 -13 8 -65 8 -60 1 5 -8 -49 -4 -63 4
-6 4 -13 4 -16 1z"/>
</g>
</svg>
